<svg xmlns="http://www.w3.org/2000/svg" width="16" height="16" viewBox="0 0 16 16">
  <path style="fill:#f5f5f5" d="M 0,0 H 16 V 16 H 0 Z"/>
  <path style="fill:#212121" d="m 7.8502695,0.9123158 q 0.6445312,0 1.546875,0.796875 0.28125,0.2460938 1.2890625,1.3007813 l 1.851562,1.9921875 q 0.316406,0.3515625 0.316406,0.7148437 0,0.4335938 -0.328125,0.7617188 -0.328125,0.3164062 -0.75,0.3164062 -0.386718,0 -0.738281,-0.3398437 -0.9375,-1.0546875 -2.9414058,-3.046875 -2.9765625,3.6445312 -3.8203125,3.6445312 -0.421875,0 -0.75,-0.328125 -0.3164062,-0.328125 -0.3164062,-0.75 0,-0.4101562 0.3632812,-0.75 Q 4.217457,4.5920033 7.1354257,1.2755971 7.451832,0.9123158 7.8502695,0.9123158 Z"/>
  <path style="fill:#212121" d="M 2.1891253,7.8 H 6.6158059 V 9.1866711 H 3.9384642 V 10.61601 h 2.5493413 v 1.386671 H 3.9384642 v 1.514671 H 6.647806 v 1.386671 H 2.1891253 Z"/>
  <path style="fill:#212121" d="M 8.7153336,7.8 H 13.686016 V 9.1866711 L 10.57134,13.517351 h 3.221343 v 1.386671 H 8.63 V 13.517351 L 11.744677,9.1866711 H 8.7153336 Z"/>
</svg>
